<svg xmlns="http://www.w3.org/2000/svg" xmlns:xlink="http://www.w3.org/1999/xlink" width="256" zoomAndPan="magnify" viewBox="0 0 192 191.999996" height="256" preserveAspectRatio="xMidYMid meet" version="1.0"><defs><clipPath id="3478779d58"><path d="M 15.71875 2.105469 L 176.21875 2.105469 L 176.21875 189.605469 L 15.71875 189.605469 Z M 15.71875 2.105469 " clip-rule="nonzero"/></clipPath></defs><rect x="-19.2" width="230.4" fill="#ffffff" y="-19.2" height="230.399995" fill-opacity="1"/><rect x="-19.2" width="230.4" fill="#ffffff" y="-19.2" height="230.399995" fill-opacity="1"/><g clip-path="url(#3478779d58)"><path fill="#d4af37" d="M 95.980469 172.90625 L 34.859375 189.285156 C 31.003906 190.316406 26.898438 189.777344 23.441406 187.78125 C 19.988281 185.785156 17.464844 182.5 16.433594 178.644531 L 16.21875 177.847656 C 15.1875 173.996094 15.726562 169.886719 17.722656 166.433594 C 19.207031 163.863281 21.402344 161.808594 24.015625 160.5 L 23.605469 158.980469 C 21.191406 149.960938 26.542969 140.691406 35.5625 138.273438 C 35.5625 138.273438 44.804688 135.796875 44.804688 135.796875 L 44.804688 90.980469 C 44.804688 84.578125 47.347656 78.433594 51.875 73.90625 C 55.023438 70.757812 58.953125 68.570312 63.203125 67.527344 C 58.777344 64.820312 55.742188 60.0625 55.742188 54.605469 C 55.742188 49.523438 58.203125 45.011719 61.996094 42.199219 C 58.203125 39.386719 55.742188 34.875 55.742188 29.792969 C 55.742188 22.210938 61.222656 15.898438 68.433594 14.605469 C 69.820312 7.519531 76.074219 2.195312 83.574219 2.195312 C 88.65625 2.195312 93.167969 4.65625 95.980469 8.453125 C 98.792969 4.65625 103.304688 2.195312 108.386719 2.195312 C 115.886719 2.195312 122.140625 7.519531 123.53125 14.605469 C 130.742188 15.898438 136.222656 22.210938 136.222656 29.792969 C 136.222656 34.875 133.757812 39.386719 129.964844 42.199219 C 133.757812 45.011719 136.222656 49.523438 136.222656 54.605469 C 136.222656 60.0625 133.183594 64.820312 128.757812 67.527344 C 133.011719 68.570312 136.9375 70.757812 140.085938 73.90625 C 144.613281 78.433594 147.15625 84.578125 147.15625 90.980469 L 147.15625 135.796875 L 156.398438 138.273438 C 165.417969 140.691406 170.769531 149.960938 168.355469 158.980469 L 167.945312 160.5 C 170.558594 161.808594 172.757812 163.863281 174.238281 166.433594 C 176.234375 169.886719 176.777344 173.996094 175.742188 177.847656 L 175.53125 178.644531 C 174.496094 182.5 171.976562 185.785156 168.519531 187.78125 C 165.0625 189.777344 160.957031 190.316406 157.101562 189.285156 Z M 29.78125 158.636719 L 56.890625 151.375 C 60.480469 150.410156 62.980469 147.15625 62.980469 143.4375 L 62.980469 105.972656 C 62.980469 104.300781 64.335938 102.945312 66.003906 102.945312 C 67.675781 102.945312 69.03125 104.300781 69.03125 105.972656 L 69.03125 143.4375 C 69.03125 149.898438 64.695312 155.550781 58.457031 157.21875 L 28.425781 165.265625 C 26.121094 165.882812 24.15625 167.390625 22.964844 169.457031 C 21.769531 171.523438 21.449219 173.980469 22.066406 176.28125 L 22.277344 177.078125 C 22.894531 179.382812 24.402344 181.347656 26.46875 182.539062 C 28.535156 183.734375 30.988281 184.058594 33.292969 183.441406 L 112.257812 162.28125 C 113.871094 161.847656 115.53125 162.808594 115.964844 164.421875 C 116.398438 166.035156 115.4375 167.695312 113.824219 168.125 L 107.671875 169.773438 L 158.667969 183.441406 C 160.972656 184.058594 163.425781 183.734375 165.492188 182.539062 C 167.558594 181.347656 169.066406 179.382812 169.683594 177.078125 L 169.898438 176.28125 C 170.515625 173.980469 170.191406 171.523438 169 169.457031 C 167.804688 167.390625 165.839844 165.882812 163.539062 165.265625 L 133.507812 157.21875 C 127.269531 155.550781 122.929688 149.898438 122.929688 143.4375 L 122.929688 105.972656 C 122.929688 104.300781 124.289062 102.945312 125.957031 102.945312 C 127.628906 102.945312 128.984375 104.300781 128.984375 105.972656 L 128.984375 143.4375 C 128.984375 147.15625 131.480469 150.410156 135.070312 151.375 L 162.179688 158.636719 L 162.507812 157.414062 C 164.0625 151.621094 160.625 145.667969 154.832031 144.117188 L 143.347656 141.042969 C 142.027344 140.6875 141.105469 139.488281 141.105469 138.117188 L 141.105469 90.980469 C 141.105469 86.179688 139.199219 81.578125 135.804688 78.183594 C 132.542969 74.921875 128.167969 73.035156 123.570312 72.894531 C 122.265625 80.089844 115.960938 85.558594 108.386719 85.558594 C 103.304688 85.558594 98.792969 83.097656 95.980469 79.300781 C 93.167969 83.097656 88.65625 85.558594 83.574219 85.558594 C 76.003906 85.558594 69.695312 80.089844 68.390625 72.894531 C 63.796875 73.035156 59.417969 74.921875 56.15625 78.183594 C 52.761719 81.578125 50.855469 86.179688 50.855469 90.980469 L 50.855469 138.117188 C 50.855469 139.488281 49.9375 140.6875 48.613281 141.042969 L 37.128906 144.117188 C 31.339844 145.667969 27.902344 151.621094 29.453125 157.414062 Z M 92.957031 17.625 C 92.957031 12.449219 88.753906 8.246094 83.574219 8.246094 C 78.449219 8.246094 74.277344 12.328125 74.199219 17.433594 C 74.195312 17.46875 74.195312 17.503906 74.195312 17.535156 C 74.195312 17.566406 74.195312 17.597656 74.195312 17.625 C 74.195312 22.804688 78.398438 27.007812 83.574219 27.007812 C 85.246094 27.007812 86.601562 28.363281 86.601562 30.03125 C 86.601562 31.703125 85.246094 33.058594 83.574219 33.058594 C 76.148438 33.058594 69.941406 27.800781 68.472656 20.808594 C 64.609375 21.96875 61.792969 25.554688 61.792969 29.792969 C 61.792969 34.96875 65.996094 39.171875 71.171875 39.171875 C 74.621094 39.171875 74.652344 44.992188 71.171875 45.226562 C 65.996094 45.226562 61.792969 49.429688 61.792969 54.605469 C 61.792969 59.113281 65.261719 62.753906 69.570312 63.644531 C 72.023438 58.363281 77.375 54.695312 83.574219 54.695312 C 85.246094 54.695312 86.601562 56.050781 86.601562 57.722656 C 86.601562 59.390625 85.246094 60.746094 83.574219 60.746094 C 79.25 60.746094 75.601562 63.683594 74.519531 67.667969 C 74.308594 68.453125 74.195312 69.277344 74.195312 70.125 C 74.195312 75.304688 78.398438 79.507812 83.574219 79.507812 C 88.753906 79.507812 92.957031 75.304688 92.957031 70.125 Z M 122.390625 63.644531 C 126.703125 62.753906 130.167969 59.113281 130.167969 54.605469 C 130.167969 49.429688 125.964844 45.289062 120.789062 45.226562 C 117.265625 45.183594 116.917969 39.171875 120.789062 39.171875 C 125.964844 39.171875 130.167969 34.96875 130.167969 29.792969 C 130.167969 25.554688 127.351562 21.96875 123.488281 20.808594 C 122.019531 27.800781 115.8125 33.058594 108.386719 33.058594 C 106.714844 33.058594 105.359375 31.703125 105.359375 30.03125 C 105.359375 28.363281 106.714844 27.007812 108.386719 27.007812 C 113.5625 27.007812 117.765625 22.804688 117.765625 17.625 C 117.765625 17.597656 117.765625 17.566406 117.765625 17.535156 C 117.765625 17.503906 117.765625 17.46875 117.765625 17.433594 C 117.6875 12.328125 113.511719 8.246094 108.386719 8.246094 C 103.210938 8.246094 99.007812 12.449219 99.007812 17.625 L 99.007812 70.125 C 99.007812 75.304688 103.210938 79.507812 108.386719 79.507812 C 113.5625 79.507812 117.765625 75.304688 117.765625 70.125 C 117.765625 69.277344 117.652344 68.453125 117.441406 67.667969 C 116.359375 63.683594 112.714844 60.746094 108.386719 60.746094 C 106.714844 60.746094 105.359375 59.390625 105.359375 57.722656 C 105.359375 56.050781 106.714844 54.695312 108.386719 54.695312 C 114.589844 54.695312 119.941406 58.363281 122.390625 63.644531 Z M 31.015625 68.628906 C 29.570312 67.792969 29.074219 65.941406 29.910156 64.496094 C 30.742188 63.046875 32.597656 62.550781 34.042969 63.386719 L 40.566406 67.152344 C 42.011719 67.988281 42.511719 69.839844 41.675781 71.289062 C 40.839844 72.734375 38.988281 73.230469 37.542969 72.394531 Z M 30.671875 88.988281 C 29.058594 89.421875 27.398438 88.460938 26.964844 86.847656 C 26.535156 85.234375 27.492188 83.574219 29.105469 83.144531 L 36.382812 81.195312 C 37.996094 80.761719 39.65625 81.71875 40.089844 83.332031 C 40.519531 84.945312 39.5625 86.605469 37.949219 87.039062 Z M 45.65625 54.472656 C 45.226562 52.859375 46.183594 51.199219 47.796875 50.769531 C 49.410156 50.335938 51.070312 51.292969 51.503906 52.90625 L 53.453125 60.183594 C 53.886719 61.796875 52.925781 63.460938 51.3125 63.890625 C 49.699219 64.324219 48.039062 63.363281 47.609375 61.753906 Z M 157.917969 64.472656 C 159.367188 63.636719 161.21875 64.132812 162.054688 65.578125 C 162.886719 67.027344 162.390625 68.878906 160.945312 69.714844 L 154.421875 73.480469 C 152.972656 74.316406 151.121094 73.820312 150.289062 72.371094 C 149.453125 70.925781 149.949219 69.074219 151.394531 68.238281 Z M 162.855469 84.226562 C 164.46875 84.660156 165.429688 86.320312 164.996094 87.933594 C 164.5625 89.546875 162.902344 90.507812 161.289062 90.074219 L 154.011719 88.125 C 152.398438 87.691406 151.441406 86.03125 151.875 84.417969 C 152.304688 82.804688 153.964844 81.847656 155.578125 82.277344 Z M 140.457031 53.992188 C 140.890625 52.378906 142.550781 51.421875 144.164062 51.851562 C 145.777344 52.285156 146.738281 53.945312 146.304688 55.558594 L 144.355469 62.835938 C 143.921875 64.449219 142.261719 65.410156 140.648438 64.976562 C 139.035156 64.542969 138.078125 62.882812 138.507812 61.269531 Z M 140.457031 53.992188 " fill-opacity="1" fill-rule="evenodd"/></g></svg>