<svg xmlns="http://www.w3.org/2000/svg" xmlns:xlink="http://www.w3.org/1999/xlink" width="256" zoomAndPan="magnify" viewBox="0 0 192 191.999996" height="256" preserveAspectRatio="xMidYMid meet" version="1.0"><rect x="-19.2" width="230.4" fill="#ffffff" y="-19.2" height="230.399995" fill-opacity="1"/><rect x="-19.2" width="230.4" fill="#ffffff" y="-19.2" height="230.399995" fill-opacity="1"/><path fill="#d4af37" d="M 175.90625 109.046875 L 175.046875 111.15625 C 171.671875 119.425781 168.199219 127.992188 164.972656 136.488281 C 159.984375 149.679688 158.433594 160.679688 160.097656 171.109375 C 160.667969 174.246094 161.433594 177.335938 162.398438 180.375 C 162.691406 181.386719 162.992188 182.394531 163.273438 183.40625 C 163.375 183.617188 163.453125 183.839844 163.507812 184.066406 C 163.5625 184.292969 163.589844 184.523438 163.597656 184.757812 C 163.601562 184.992188 163.585938 185.226562 163.542969 185.457031 C 163.5 185.6875 163.433594 185.910156 163.34375 186.128906 C 163.253906 186.34375 163.144531 186.550781 163.011719 186.742188 C 162.878906 186.9375 162.730469 187.113281 162.558594 187.277344 C 162.390625 187.4375 162.207031 187.578125 162.003906 187.703125 C 161.804688 187.824219 161.597656 187.925781 161.375 188.007812 C 161.042969 188.136719 160.703125 188.21875 160.347656 188.253906 C 159.777344 188.585938 159.160156 188.746094 158.5 188.734375 L 83.066406 188.734375 C 81.902344 189.035156 80.730469 189.0625 79.554688 188.816406 C 78.378906 188.574219 77.316406 188.082031 76.367188 187.347656 C 74.707031 185.292969 73.542969 182.988281 72.867188 180.433594 C 72.675781 179.9375 72.523438 179.515625 72.425781 179.242188 C 68.414062 180.734375 64.277344 181.707031 60.019531 182.160156 C 55.761719 182.617188 51.515625 182.539062 47.277344 181.929688 C 42.621094 181.582031 38.238281 180.308594 34.125 178.105469 C 32.304688 176.84375 30.8125 175.273438 29.640625 173.390625 C 28.46875 171.511719 27.71875 169.476562 27.390625 167.285156 C 26.523438 162.664062 27.191406 158.003906 26.789062 153.355469 C 26.535156 150.894531 25.953125 148.515625 25.039062 146.21875 C 24.128906 143.917969 22.921875 141.785156 21.421875 139.820312 C 21.164062 139.472656 20.976562 139.089844 20.855469 138.671875 L 20.421875 138.109375 C 20.082031 137.53125 19.910156 136.902344 19.910156 136.230469 L 19.910156 133.359375 C 19.910156 133.175781 19.925781 132.988281 19.960938 132.808594 C 19.285156 131.660156 18.960938 130.417969 18.988281 129.085938 C 19.046875 128.3125 18.992188 127.542969 18.824219 126.785156 C 18.65625 126.027344 18.382812 125.308594 18.003906 124.628906 C 17.625 123.949219 17.15625 123.339844 16.601562 122.796875 C 16.042969 122.253906 15.421875 121.804688 14.730469 121.445312 C 14.121094 121.125 13.546875 120.75 13.007812 120.320312 C 12.472656 119.886719 11.984375 119.40625 11.542969 118.875 C 11.101562 118.347656 10.714844 117.78125 10.386719 117.175781 C 10.058594 116.570312 9.792969 115.9375 9.589844 115.277344 C 9.382812 114.621094 9.246094 113.949219 9.175781 113.261719 C 9.105469 112.578125 9.105469 111.890625 9.171875 111.207031 C 9.238281 110.519531 9.371094 109.847656 9.570312 109.1875 C 9.769531 108.527344 10.03125 107.894531 10.355469 107.285156 C 11.714844 104.328125 13.4375 101.601562 15.523438 99.097656 C 17.597656 96.644531 19.308594 93.957031 20.65625 91.042969 C 22 88.125 22.9375 85.082031 23.460938 81.910156 C 24.082031 77.941406 24.339844 73.839844 24.59375 69.875 C 24.765625 67.144531 24.945312 64.335938 25.238281 61.582031 C 27.867188 36.863281 40.390625 19.480469 62.453125 9.910156 C 75.902344 4.34375 89.894531 1.234375 104.433594 0.582031 C 108.785156 0.539062 113.109375 0.863281 117.40625 1.554688 C 121.699219 2.242188 125.910156 3.289062 130.027344 4.6875 C 134.148438 6.089844 138.117188 7.824219 141.945312 9.898438 C 145.769531 11.972656 149.394531 14.351562 152.816406 17.039062 C 156.152344 19.667969 159.242188 22.5625 162.085938 25.722656 C 164.925781 28.886719 167.476562 32.265625 169.738281 35.863281 C 172 39.460938 173.941406 43.226562 175.554688 47.15625 C 177.171875 51.085938 178.441406 55.128906 179.363281 59.277344 C 180.394531 63.382812 181.097656 67.546875 181.46875 71.769531 C 181.84375 75.988281 181.882812 80.210938 181.589844 84.4375 C 181.292969 88.664062 180.671875 92.839844 179.71875 96.96875 C 178.765625 101.09375 177.492188 105.121094 175.90625 109.046875 Z M 173.160156 63.023438 C 167.230469 33.632812 144.765625 12.148438 115.921875 8.285156 C 111.011719 7.675781 106.082031 7.457031 101.136719 7.628906 C 96.191406 7.804688 91.289062 8.363281 86.433594 9.3125 C 81.578125 10.265625 76.824219 11.589844 72.179688 13.296875 C 67.53125 15 63.050781 17.058594 58.730469 19.472656 C 57.179688 20.277344 55.675781 21.164062 54.21875 22.132812 C 52.761719 23.101562 51.367188 24.144531 50.027344 25.269531 C 48.6875 26.394531 47.414062 27.585938 46.207031 28.851562 C 44.996094 30.113281 43.863281 31.441406 42.800781 32.828125 C 41.738281 34.21875 40.757812 35.660156 39.855469 37.160156 C 38.953125 38.65625 38.136719 40.199219 37.40625 41.785156 C 36.675781 43.375 36.03125 44.996094 35.480469 46.65625 C 34.925781 48.316406 34.46875 50 34.101562 51.707031 C 32.589844 58.34375 31.761719 65.066406 31.621094 71.871094 C 31.605469 74.828125 31.347656 77.761719 30.839844 80.675781 C 30.332031 83.589844 29.585938 86.4375 28.601562 89.226562 C 27.617188 92.011719 26.40625 94.699219 24.96875 97.285156 C 23.535156 99.867188 21.894531 102.3125 20.046875 104.621094 C 18.898438 105.988281 17.886719 107.449219 17.019531 109.007812 C 15.308594 112.246094 15.804688 114.082031 18.914062 116.007812 C 19.964844 116.578125 20.917969 117.28125 21.773438 118.113281 C 22.632812 118.945312 23.363281 119.878906 23.964844 120.910156 C 24.570312 121.941406 25.023438 123.035156 25.328125 124.1875 C 25.632812 125.34375 25.777344 126.519531 25.761719 127.714844 C 25.6875 128.292969 25.824219 128.8125 26.183594 129.273438 C 26.667969 129.628906 27.207031 129.761719 27.800781 129.667969 C 31.308594 129.597656 34.949219 129.601562 38.621094 129.667969 C 39.742188 129.621094 40.714844 129.980469 41.535156 130.75 C 42.175781 131.476562 42.449219 132.320312 42.351562 133.28125 C 42.269531 135.359375 40.925781 136.507812 38.574219 136.507812 C 37.441406 136.507812 36.3125 136.511719 35.179688 136.523438 C 32.867188 136.539062 30.492188 136.539062 28.128906 136.5 C 30.347656 139.800781 31.988281 143.371094 33.050781 147.203125 C 34.109375 151.035156 34.539062 154.9375 34.332031 158.910156 C 34.300781 162.585938 34.082031 166.851562 36.285156 170.019531 C 38.519531 173.246094 43.480469 173.816406 47.0625 174.425781 C 62.25 176.996094 79.347656 172.113281 86.121094 157.203125 C 88.105469 152.847656 94.519531 156.628906 92.546875 160.960938 C 91.085938 164.152344 89.175781 167.046875 86.820312 169.648438 C 84.460938 172.25 81.765625 174.433594 78.734375 176.203125 C 79.578125 177.992188 80.3125 179.738281 80.9375 181.300781 L 155.234375 181.300781 C 154.253906 178.007812 153.542969 174.65625 153.097656 171.25 C 152.652344 167.84375 152.476562 164.421875 152.574219 160.988281 C 152.671875 157.554688 153.039062 154.148438 153.671875 150.773438 C 154.308594 147.398438 155.207031 144.09375 156.367188 140.859375 C 160.035156 130.125 164.257812 119.386719 168.34375 109.003906 L 169.921875 104.996094 C 171.214844 101.675781 172.261719 98.277344 173.054688 94.800781 C 173.851562 91.324219 174.382812 87.808594 174.660156 84.25 C 174.933594 80.695312 174.945312 77.140625 174.695312 73.582031 C 174.441406 70.027344 173.933594 66.507812 173.160156 63.023438 Z M 152.257812 67.492188 C 152.058594 67.316406 151.894531 67.113281 151.769531 66.882812 C 151.640625 66.652344 151.554688 66.410156 151.511719 66.148438 C 151.46875 65.886719 151.46875 65.628906 151.515625 65.371094 C 151.5625 65.109375 151.652344 64.867188 151.785156 64.636719 C 151.972656 64.21875 152.140625 63.789062 152.289062 63.355469 C 152.433594 62.917969 152.558594 62.472656 152.660156 62.023438 C 152.761719 61.574219 152.839844 61.121094 152.894531 60.664062 C 152.949219 60.207031 152.980469 59.75 152.988281 59.289062 C 152.996094 58.828125 152.980469 58.371094 152.941406 57.910156 C 152.902344 57.453125 152.839844 56.996094 152.753906 56.542969 C 152.667969 56.09375 152.558594 55.644531 152.425781 55.203125 C 152.296875 54.761719 152.144531 54.328125 151.96875 53.90625 C 151.792969 53.480469 151.59375 53.0625 151.375 52.65625 C 151.160156 52.253906 150.921875 51.859375 150.660156 51.476562 C 150.402344 51.097656 150.125 50.730469 149.832031 50.378906 C 149.535156 50.023438 149.222656 49.6875 148.890625 49.367188 C 148.5625 49.046875 148.214844 48.742188 147.855469 48.457031 C 147.492188 48.171875 147.117188 47.90625 146.730469 47.660156 C 146.339844 47.414062 145.941406 47.1875 145.53125 46.980469 C 145.117188 46.773438 144.695312 46.589844 144.265625 46.425781 C 143.988281 46.355469 143.730469 46.238281 143.492188 46.074219 C 143.253906 45.914062 143.050781 45.714844 142.882812 45.480469 C 142.71875 45.246094 142.59375 44.992188 142.515625 44.714844 C 142.4375 44.4375 142.410156 44.15625 142.429688 43.871094 C 142.390625 42.949219 142.265625 42.042969 142.054688 41.144531 C 141.847656 40.25 141.554688 39.378906 141.183594 38.539062 C 140.8125 37.695312 140.367188 36.894531 139.84375 36.136719 C 139.324219 35.378906 138.734375 34.671875 138.082031 34.023438 C 137.429688 33.375 136.722656 32.789062 135.960938 32.273438 C 135.199219 31.757812 134.398438 31.3125 133.554688 30.945312 C 132.707031 30.578125 131.835938 30.292969 130.941406 30.089844 C 130.042969 29.882812 129.132812 29.761719 128.214844 29.730469 C 127.328125 29.714844 126.566406 29.398438 125.929688 28.785156 C 122.359375 23.054688 118.488281 20.375 113.773438 20.574219 C 112.488281 20.394531 111.214844 20.457031 109.957031 20.769531 C 109.53125 20.921875 109.058594 21.121094 109.058594 21.121094 C 108.664062 21.289062 108.269531 21.515625 107.648438 21.863281 C 107.203125 22.113281 106.773438 22.386719 106.359375 22.683594 C 106.132812 22.832031 105.910156 22.984375 105.6875 23.152344 L 105.636719 23.179688 L 105.511719 23.304688 C 104.738281 23.949219 104.019531 24.652344 103.351562 25.410156 C 103.328125 25.4375 103.082031 25.734375 103.03125 25.785156 C 102.988281 25.855469 102.9375 25.921875 102.882812 25.984375 C 101.757812 27.769531 101.023438 29.707031 100.675781 31.789062 L 100.675781 33.277344 C 100.5 33.421875 100.308594 33.546875 100.105469 33.644531 C 96.894531 35.015625 93.617188 36.21875 90.28125 37.246094 C 89.386719 37.511719 88.53125 37.410156 87.722656 36.949219 C 85.789062 35.53125 83.902344 33.921875 82.117188 32.359375 L 80.949219 31.367188 C 80.769531 31.164062 80.570312 30.984375 80.351562 30.824219 C 80.128906 30.667969 79.894531 30.535156 79.648438 30.429688 C 79.398438 30.324219 79.140625 30.246094 78.875 30.195312 C 78.609375 30.148438 78.339844 30.128906 78.070312 30.140625 C 77.796875 30.148438 77.53125 30.191406 77.269531 30.257812 C 77.007812 30.328125 76.757812 30.425781 76.519531 30.550781 C 76.277344 30.675781 76.054688 30.828125 75.847656 31.003906 C 75.644531 31.179688 75.457031 31.375 75.292969 31.589844 C 72.414062 34.515625 69.4375 37.492188 66.582031 40.347656 L 66.261719 40.644531 C 66.058594 40.804688 65.875 40.984375 65.710938 41.183594 C 65.546875 41.382812 65.40625 41.597656 65.289062 41.828125 C 65.171875 42.058594 65.082031 42.296875 65.015625 42.546875 C 64.953125 42.796875 64.914062 43.050781 64.902344 43.308594 C 64.894531 43.566406 64.910156 43.824219 64.953125 44.078125 C 65 44.332031 65.070312 44.578125 65.167969 44.816406 C 65.265625 45.054688 65.390625 45.28125 65.535156 45.492188 C 65.683594 45.707031 65.851562 45.898438 66.039062 46.078125 L 67.675781 48.011719 C 69.140625 49.703125 70.652344 51.460938 71.96875 53.296875 C 72.46875 54.207031 72.570312 55.15625 72.265625 56.148438 C 71.851562 57.433594 71.375 58.691406 70.828125 59.921875 C 70.382812 61.011719 69.910156 62.15625 69.535156 63.296875 C 69.039062 64.757812 68.445312 65.234375 67.054688 65.28125 C 64.996094 65.332031 62.9375 65.53125 60.929688 65.730469 C 59.9375 65.804688 58.964844 65.902344 57.976562 65.976562 C 57.707031 65.964844 57.4375 65.980469 57.171875 66.027344 C 56.902344 66.074219 56.644531 66.148438 56.394531 66.25 C 56.144531 66.351562 55.90625 66.480469 55.683594 66.632812 C 55.460938 66.789062 55.257812 66.964844 55.070312 67.164062 C 54.886719 67.363281 54.726562 67.578125 54.589844 67.8125 C 54.453125 68.046875 54.34375 68.289062 54.257812 68.546875 C 54.175781 68.804688 54.121094 69.070312 54.09375 69.339844 C 54.070312 69.609375 54.074219 69.878906 54.105469 70.148438 C 54.132812 73.917969 54.132812 77.761719 54.105469 81.460938 L 54.105469 82.925781 C 54.074219 83.195312 54.070312 83.464844 54.097656 83.734375 C 54.125 84.003906 54.179688 84.265625 54.265625 84.523438 C 54.351562 84.78125 54.464844 85.027344 54.605469 85.257812 C 54.746094 85.492188 54.910156 85.703125 55.097656 85.898438 C 55.285156 86.097656 55.492188 86.269531 55.71875 86.417969 C 55.941406 86.566406 56.183594 86.691406 56.4375 86.789062 C 56.6875 86.882812 56.949219 86.953125 57.21875 86.992188 C 57.488281 87.027344 57.757812 87.039062 58.027344 87.015625 C 60.058594 87.117188 62.121094 87.316406 64.101562 87.492188 L 66.511719 87.710938 C 66.855469 87.6875 67.191406 87.722656 67.519531 87.820312 C 67.851562 87.917969 68.152344 88.070312 68.425781 88.277344 C 68.703125 88.488281 68.929688 88.738281 69.113281 89.027344 C 69.296875 89.320312 69.421875 89.632812 69.488281 89.972656 C 70.070312 92.105469 70.921875 94.121094 72.046875 96.027344 C 72.316406 96.363281 72.503906 96.742188 72.617188 97.15625 C 72.730469 97.574219 72.757812 97.996094 72.695312 98.421875 C 72.632812 98.851562 72.492188 99.246094 72.265625 99.617188 C 72.039062 99.984375 71.75 100.292969 71.398438 100.539062 C 70.128906 101.808594 68.9375 103.148438 67.828125 104.558594 C 67.207031 105.304688 66.613281 106.050781 65.964844 106.769531 C 65.777344 106.945312 65.609375 107.140625 65.460938 107.351562 C 65.3125 107.5625 65.191406 107.789062 65.09375 108.027344 C 64.992188 108.265625 64.921875 108.515625 64.875 108.769531 C 64.828125 109.023438 64.808594 109.277344 64.816406 109.535156 C 64.824219 109.796875 64.859375 110.050781 64.921875 110.300781 C 64.984375 110.550781 65.074219 110.792969 65.1875 111.023438 C 65.300781 111.257812 65.4375 111.472656 65.597656 111.675781 C 65.761719 111.878906 65.941406 112.0625 66.140625 112.226562 C 69.195312 115.375 72.34375 118.503906 75.59375 121.679688 C 75.753906 121.867188 75.929688 122.035156 76.128906 122.183594 C 76.324219 122.332031 76.53125 122.457031 76.753906 122.5625 C 76.976562 122.664062 77.207031 122.746094 77.449219 122.800781 C 77.6875 122.855469 77.929688 122.886719 78.175781 122.890625 C 78.421875 122.898438 78.664062 122.875 78.90625 122.828125 C 79.148438 122.78125 79.382812 122.710938 79.609375 122.613281 C 79.835938 122.519531 80.046875 122.398438 80.25 122.257812 C 80.449219 122.117188 80.636719 121.957031 80.800781 121.777344 L 88.691406 115.179688 C 89.582031 115.550781 90.425781 115.921875 91.296875 116.269531 C 93.851562 117.339844 98.121094 118.355469 100.5 119.472656 C 100.566406 119.503906 100.625 119.546875 100.675781 119.59375 L 100.675781 129.597656 C 100.71875 129.722656 100.777344 129.835938 100.847656 129.945312 C 102.460938 132.800781 106.480469 133.445312 108.910156 133.617188 C 109.496094 133.597656 110.046875 133.453125 110.566406 133.1875 C 111.085938 132.925781 111.527344 132.5625 111.886719 132.101562 C 113.933594 132.527344 115.988281 132.570312 118.046875 132.234375 C 120.109375 131.898438 122.042969 131.199219 123.84375 130.144531 C 125.859375 128.992188 127.96875 128.050781 130.171875 127.3125 C 140.046875 124.117188 144.910156 118.609375 145.433594 110.019531 C 145.453125 109.625 145.753906 108.90625 146.992188 107.816406 C 150.867188 104.363281 155.054688 99.601562 153.21875 93.175781 C 152.75 91.355469 152.644531 89.511719 152.898438 87.648438 C 153.152344 85.785156 153.746094 84.039062 154.6875 82.410156 C 155.25 81.1875 155.621094 79.90625 155.800781 78.574219 C 155.980469 77.238281 155.960938 75.90625 155.746094 74.578125 C 155.527344 73.25 155.121094 71.980469 154.523438 70.773438 C 153.929688 69.566406 153.167969 68.472656 152.246094 67.492188 Z M 100.664062 94.582031 C 95.007812 90.714844 88.976562 83.988281 89.148438 76.273438 C 89.296875 68.832031 94.832031 62.207031 100.664062 58.335938 Z M 92.003906 108.703125 C 88.332031 106.742188 87.660156 106.667969 84.558594 109.496094 C 83.09375 110.835938 81.582031 112.101562 80.246094 113.242188 C 79.769531 113.640625 79.300781 114.039062 78.878906 114.40625 L 72.996094 109.273438 L 74.859375 107.117188 C 76.421875 105.28125 77.886719 103.542969 79.449219 101.855469 C 79.792969 101.492188 80.070312 101.085938 80.273438 100.628906 C 80.480469 100.175781 80.609375 99.699219 80.652344 99.199219 C 80.699219 98.703125 80.660156 98.210938 80.539062 97.726562 C 80.417969 97.238281 80.21875 96.789062 79.945312 96.371094 C 78.335938 92.746094 76.792969 88.902344 75.28125 84.609375 C 75.175781 84.140625 75 83.703125 74.75 83.292969 C 74.496094 82.882812 74.1875 82.523438 73.816406 82.21875 C 73.445312 81.914062 73.035156 81.675781 72.585938 81.507812 C 72.132812 81.339844 71.667969 81.25 71.1875 81.234375 C 68.011719 81.066406 65.359375 80.863281 62.703125 80.519531 C 62.058594 80.417969 61.089844 79.722656 61.066406 79.425781 C 60.9375 77.726562 60.898438 76.023438 60.945312 74.316406 C 60.96875 73.769531 60.96875 73.222656 60.96875 72.679688 L 64.019531 72.378906 C 66.527344 72.132812 68.90625 71.882812 71.261719 71.734375 C 71.742188 71.71875 72.203125 71.621094 72.648438 71.449219 C 73.09375 71.277344 73.5 71.035156 73.867188 70.730469 C 74.234375 70.421875 74.539062 70.0625 74.785156 69.652344 C 75.03125 69.242188 75.207031 68.804688 75.308594 68.335938 C 76.820312 64.019531 78.3125 60.25 79.898438 56.824219 C 80.160156 56.398438 80.347656 55.945312 80.460938 55.457031 C 80.574219 54.972656 80.609375 54.480469 80.5625 53.984375 C 80.515625 53.484375 80.390625 53.007812 80.1875 52.554688 C 79.984375 52.097656 79.714844 51.683594 79.375 51.316406 C 77.789062 49.53125 76.300781 47.695312 74.835938 45.90625 C 74.265625 45.238281 73.71875 44.542969 73.171875 43.898438 L 78.65625 38.414062 C 79.300781 38.960938 79.945312 39.480469 80.589844 40.023438 C 82.304688 41.417969 84.039062 42.878906 85.730469 44.367188 C 86.109375 44.730469 86.539062 45.019531 87.019531 45.230469 C 87.5 45.445312 88.003906 45.566406 88.527344 45.601562 C 89.050781 45.636719 89.566406 45.578125 90.070312 45.433594 C 90.574219 45.285156 91.039062 45.054688 91.460938 44.742188 C 93.867188 43.476562 97.960938 42.332031 100.667969 41.292969 L 100.667969 50.472656 C 90.742188 55.164062 81.929688 65.832031 82.304688 77.296875 C 82.703125 89.355469 91.960938 98.683594 100.667969 102.675781 L 100.667969 111.984375 C 97.710938 111.066406 94.824219 109.96875 92.003906 108.703125 Z M 146.214844 83.621094 C 143.707031 86.347656 136.238281 87.191406 133.734375 85.035156 C 133.339844 84.699219 133.042969 84.292969 132.84375 83.820312 C 130.085938 76.101562 123.414062 74.113281 117.90625 73.273438 C 117.328125 73.132812 116.746094 73.105469 116.164062 73.203125 C 115.578125 73.296875 115.03125 73.5 114.53125 73.816406 C 113.792969 74.429688 113.402344 75.21875 113.363281 76.175781 C 113.042969 79.128906 115.324219 79.824219 117.085938 80.097656 C 121.230469 80.71875 123.808594 81.878906 125.199219 83.820312 C 125.941406 85.140625 126.394531 86.554688 126.5625 88.0625 C 126.730469 89.570312 126.597656 91.050781 126.167969 92.503906 C 126.167969 92.527344 126.144531 92.550781 126.144531 92.574219 C 126.109375 92.644531 126.09375 92.71875 126.09375 92.800781 C 125.976562 93.253906 125.949219 93.714844 126.015625 94.179688 C 126.082031 94.644531 126.234375 95.078125 126.472656 95.480469 C 126.714844 95.886719 127.023438 96.226562 127.398438 96.507812 C 127.777344 96.785156 128.191406 96.984375 128.648438 97.097656 C 128.871094 97.175781 129.097656 97.230469 129.332031 97.261719 C 129.566406 97.292969 129.800781 97.296875 130.035156 97.277344 C 130.269531 97.257812 130.5 97.210938 130.726562 97.140625 C 130.949219 97.070312 131.164062 96.980469 131.371094 96.863281 C 131.574219 96.746094 131.765625 96.609375 131.941406 96.449219 C 132.117188 96.292969 132.273438 96.117188 132.410156 95.925781 C 132.550781 95.734375 132.664062 95.53125 132.757812 95.316406 C 132.851562 95.097656 132.921875 94.875 132.96875 94.644531 C 133.113281 94.148438 133.289062 93.671875 133.4375 93.203125 L 133.585938 92.753906 C 134.179688 92.808594 134.777344 92.882812 135.347656 92.929688 C 136.792969 93.101562 138.238281 93.175781 139.691406 93.15625 C 141.199219 93.066406 142.699219 92.875 144.183594 92.582031 C 144.726562 92.484375 145.296875 92.40625 145.867188 92.3125 C 146.046875 92.679688 146.191406 93.058594 146.304688 93.453125 C 146.414062 93.84375 146.492188 94.242188 146.535156 94.652344 C 146.574219 95.058594 146.578125 95.464844 146.550781 95.871094 C 146.519531 96.277344 146.453125 96.679688 146.351562 97.074219 C 146.25 97.472656 146.113281 97.855469 145.945312 98.226562 C 145.777344 98.597656 145.574219 98.953125 145.34375 99.289062 C 145.113281 99.625 144.851562 99.9375 144.566406 100.230469 C 144.28125 100.519531 143.96875 100.785156 143.636719 101.019531 C 143.5625 100.847656 143.488281 100.671875 143.414062 100.472656 C 143.167969 99.828125 142.894531 99.183594 142.617188 98.5625 C 142.425781 98.015625 142.132812 97.527344 141.738281 97.105469 C 141.339844 96.679688 140.875 96.355469 140.339844 96.128906 C 139.402344 95.84375 138.507812 95.941406 137.65625 96.425781 C 137.429688 96.523438 137.214844 96.648438 137.011719 96.792969 C 136.8125 96.9375 136.628906 97.101562 136.464844 97.289062 C 136.300781 97.476562 136.15625 97.675781 136.039062 97.894531 C 135.917969 98.113281 135.824219 98.339844 135.753906 98.578125 C 135.6875 98.816406 135.644531 99.0625 135.628906 99.308594 C 135.613281 99.558594 135.628906 99.804688 135.667969 100.050781 C 135.707031 100.292969 135.773438 100.53125 135.867188 100.761719 C 135.960938 100.992188 136.078125 101.210938 136.21875 101.414062 L 136.265625 101.515625 C 136.871094 102.742188 137.402344 104 137.859375 105.289062 C 139.695312 110.746094 137.808594 116.378906 133.539062 118.1875 C 133.214844 117.769531 132.921875 117.324219 132.621094 116.875 C 132.058594 115.777344 131.238281 114.925781 130.164062 114.320312 C 129.800781 114.160156 129.417969 114.078125 129.023438 114.070312 C 128.675781 114.070312 128.34375 114.144531 128.03125 114.292969 C 126.855469 115.070312 126.113281 116.144531 125.796875 117.515625 C 125.734375 117.6875 125.660156 117.851562 125.578125 118.011719 C 125.519531 118.085938 125.476562 118.171875 125.453125 118.261719 C 124.769531 119.84375 123.804688 121.230469 122.558594 122.421875 C 121.316406 123.613281 119.890625 124.519531 118.28125 125.132812 C 116.644531 125.597656 114.980469 125.722656 113.292969 125.511719 C 111.605469 125.300781 110.023438 124.769531 108.554688 123.917969 C 107.871094 123.507812 107.449219 122.910156 107.289062 122.132812 C 107.1875 119.648438 107.1875 117.167969 107.214844 114.5625 C 107.214844 113.769531 107.238281 112.953125 107.238281 112.132812 C 107.660156 112.207031 108.058594 112.277344 108.453125 112.378906 C 109.519531 112.578125 110.515625 112.777344 111.53125 112.875 C 117.386719 113.476562 121.503906 111.738281 124.183594 107.542969 C 124.34375 107.355469 124.484375 107.148438 124.601562 106.929688 C 124.714844 106.710938 124.804688 106.480469 124.871094 106.242188 C 124.9375 106.003906 124.976562 105.761719 124.988281 105.511719 C 125 105.265625 124.984375 105.019531 124.941406 104.773438 C 124.898438 104.53125 124.828125 104.292969 124.734375 104.066406 C 124.640625 103.835938 124.519531 103.621094 124.378906 103.417969 C 124.234375 103.214844 124.074219 103.027344 123.890625 102.863281 C 123.707031 102.695312 123.507812 102.550781 123.292969 102.425781 C 122.570312 101.847656 121.75 101.621094 120.835938 101.757812 C 119.808594 102.023438 119.050781 102.628906 118.554688 103.566406 C 118.21875 104.082031 117.808594 104.535156 117.328125 104.921875 C 116.84375 105.308594 116.316406 105.613281 115.738281 105.832031 C 115.160156 106.050781 114.5625 106.175781 113.945312 106.203125 C 113.328125 106.230469 112.722656 106.164062 112.125 106 C 110.945312 105.789062 109.796875 105.46875 108.675781 105.035156 L 107.414062 104.59375 L 107.414062 96.230469 C 108.304688 96.058594 109.171875 95.910156 110.015625 95.757812 C 112.171875 95.363281 114.234375 94.992188 116.269531 94.46875 C 117.332031 94.257812 118.144531 93.6875 118.699219 92.753906 C 119.097656 91.917969 119.113281 91.074219 118.75 90.226562 C 118.6875 89.972656 118.597656 89.730469 118.480469 89.5 C 118.367188 89.265625 118.222656 89.050781 118.058594 88.851562 C 117.890625 88.652344 117.707031 88.472656 117.5 88.316406 C 117.292969 88.15625 117.074219 88.023438 116.835938 87.917969 C 116.597656 87.808594 116.355469 87.730469 116.097656 87.679688 C 115.84375 87.625 115.589844 87.605469 115.328125 87.609375 C 115.070312 87.617188 114.8125 87.652344 114.5625 87.714844 C 114.308594 87.78125 114.070312 87.871094 113.839844 87.992188 C 112.472656 88.386719 111.085938 88.625 109.667969 88.707031 L 109.222656 88.734375 C 108.660156 88.863281 108.144531 88.753906 107.683594 88.410156 C 107.242188 87.847656 107.074219 87.210938 107.1875 86.5 C 107.285156 80.324219 107.285156 74.296875 107.1875 68.589844 C 107.09375 67.820312 107.308594 67.148438 107.832031 66.578125 C 108.257812 66.234375 108.738281 66.121094 109.273438 66.234375 C 111.929688 66.597656 114.519531 67.242188 117.035156 68.167969 C 118.945312 68.859375 120.882812 69.183594 122.121094 67.027344 C 122.632812 66.226562 122.773438 65.367188 122.542969 64.445312 C 122.339844 63.894531 122.035156 63.40625 121.628906 62.980469 C 121.222656 62.554688 120.75 62.222656 120.210938 61.988281 C 118.300781 60.835938 116.25 60.039062 114.058594 59.597656 C 111.871094 59.160156 109.671875 59.105469 107.460938 59.433594 L 107.460938 52.859375 C 108.007812 52.90625 108.550781 52.957031 109.070312 53.007812 C 110.382812 53.1875 111.699219 53.269531 113.019531 53.253906 C 113.71875 53.296875 114.410156 53.230469 115.089844 53.054688 C 115.769531 52.878906 116.40625 52.601562 116.996094 52.226562 C 117.589844 51.847656 118.109375 51.390625 118.558594 50.851562 C 119.003906 50.308594 119.359375 49.714844 119.617188 49.0625 C 119.8125 48.398438 119.839844 47.730469 119.699219 47.054688 C 119.558594 46.375 119.269531 45.773438 118.824219 45.242188 C 118 44.679688 117.09375 44.429688 116.097656 44.5 C 115.652344 44.464844 115.261719 44.597656 114.929688 44.894531 C 112.867188 47.152344 110.90625 46.503906 108.601562 45.738281 C 108.15625 45.613281 107.707031 45.464844 107.261719 45.316406 C 107.261719 44.152344 107.234375 42.957031 107.234375 41.792969 C 107.210938 38.867188 107.1875 36.113281 107.285156 33.285156 C 107.328125 32.574219 107.488281 31.894531 107.765625 31.242188 C 108.042969 30.589844 108.425781 30.003906 108.90625 29.484375 C 109.386719 28.964844 109.945312 28.539062 110.574219 28.210938 C 111.203125 27.886719 111.867188 27.671875 112.570312 27.578125 C 113.238281 27.445312 113.910156 27.425781 114.582031 27.523438 C 115.257812 27.617188 115.898438 27.820312 116.503906 28.128906 C 117.109375 28.441406 117.648438 28.839844 118.117188 29.335938 C 118.585938 29.828125 118.964844 30.382812 119.246094 31 C 119.707031 32.484375 119.855469 33.996094 119.691406 35.542969 C 119.59375 37.230469 119.792969 39.042969 121.925781 39.738281 C 122.339844 39.890625 122.773438 39.960938 123.214844 39.945312 C 123.660156 39.933594 124.085938 39.835938 124.492188 39.660156 C 124.898438 39.480469 125.257812 39.234375 125.570312 38.914062 C 125.878906 38.597656 126.121094 38.234375 126.289062 37.824219 C 126.535156 37.492188 126.839844 37.230469 127.207031 37.039062 C 127.574219 36.847656 127.960938 36.746094 128.375 36.734375 C 128.851562 36.765625 129.320312 36.84375 129.785156 36.960938 C 130.25 37.082031 130.695312 37.242188 131.128906 37.441406 C 131.5625 37.644531 131.976562 37.882812 132.363281 38.160156 C 132.753906 38.441406 133.113281 38.75 133.445312 39.09375 C 133.777344 39.4375 134.078125 39.8125 134.339844 40.210938 C 134.601562 40.609375 134.828125 41.03125 135.011719 41.46875 C 135.199219 41.910156 135.34375 42.363281 135.445312 42.832031 C 135.546875 43.300781 135.605469 43.773438 135.621094 44.25 C 135.648438 44.777344 135.625 45.304688 135.550781 45.828125 C 135.476562 46.351562 135.347656 46.859375 135.171875 47.359375 C 134.992188 47.855469 134.769531 48.332031 134.496094 48.785156 C 134.222656 49.234375 133.90625 49.65625 133.550781 50.046875 C 133.191406 50.4375 132.800781 50.789062 132.375 51.097656 C 131.945312 51.410156 131.492188 51.675781 131.011719 51.894531 C 130.53125 52.117188 130.035156 52.285156 129.519531 52.40625 C 129.003906 52.527344 128.484375 52.597656 127.957031 52.613281 C 125.324219 52.957031 124.132812 54.148438 124.285156 56.261719 C 124.300781 57.222656 124.664062 58.023438 125.375 58.667969 C 126.367188 59.382812 127.464844 59.648438 128.675781 59.460938 C 129.699219 59.414062 130.703125 59.257812 131.6875 58.988281 C 132.675781 58.71875 133.621094 58.339844 134.523438 57.859375 C 135.429688 57.378906 136.265625 56.804688 137.042969 56.136719 C 137.820312 55.472656 138.511719 54.726562 139.121094 53.902344 C 140.382812 52.167969 141.351562 52.339844 142.914062 53.355469 C 143.25 53.566406 143.566406 53.804688 143.863281 54.070312 C 144.160156 54.335938 144.429688 54.625 144.675781 54.9375 C 144.921875 55.25 145.136719 55.582031 145.324219 55.933594 C 145.511719 56.285156 145.664062 56.648438 145.789062 57.027344 C 145.910156 57.402344 146 57.789062 146.054688 58.183594 C 146.109375 58.578125 146.128906 58.972656 146.117188 59.371094 C 146.101562 59.765625 146.054688 60.160156 145.96875 60.550781 C 145.886719 60.9375 145.769531 61.316406 145.621094 61.683594 C 145.351562 62.449219 144.980469 63.164062 144.511719 63.824219 C 144.046875 64.488281 143.496094 65.074219 142.867188 65.585938 C 142.234375 66.09375 141.546875 66.511719 140.800781 66.832031 C 140.058594 67.148438 139.28125 67.363281 138.476562 67.46875 C 137.835938 67.480469 137.21875 67.617188 136.632812 67.878906 C 136.046875 68.140625 135.535156 68.507812 135.101562 68.980469 C 134.574219 69.746094 134.40625 70.578125 134.605469 71.484375 C 134.644531 71.972656 134.785156 72.425781 135.03125 72.847656 C 135.273438 73.269531 135.59375 73.617188 135.996094 73.894531 C 136.539062 74.203125 137.125 74.386719 137.746094 74.445312 C 138.367188 74.507812 138.972656 74.4375 139.566406 74.242188 C 141.28125 73.761719 142.960938 73.179688 144.605469 72.503906 C 145.277344 72.230469 145.96875 71.957031 146.664062 71.710938 C 147.320312 72.210938 147.847656 72.824219 148.242188 73.550781 C 148.632812 74.277344 148.859375 75.054688 148.921875 75.875 C 149.011719 77.296875 148.820312 78.679688 148.351562 80.023438 C 147.882812 81.367188 147.167969 82.566406 146.214844 83.621094 Z M 146.214844 83.621094 " fill-opacity="1" fill-rule="nonzero"/></svg>