<svg xmlns="http://www.w3.org/2000/svg" xmlns:xlink="http://www.w3.org/1999/xlink" width="256" zoomAndPan="magnify" viewBox="0 0 192 191.999996" height="256" preserveAspectRatio="xMidYMid meet" version="1.0"><defs><clipPath id="ee069008fd"><path d="M 11.257812 89 L 77 89 L 77 155 L 11.257812 155 Z M 11.257812 89 " clip-rule="nonzero"/></clipPath><clipPath id="1cb3a612d7"><path d="M 16 14.339844 L 149 14.339844 L 149 146 L 16 146 Z M 16 14.339844 " clip-rule="nonzero"/></clipPath><clipPath id="3ee80adaa7"><path d="M 130 127 L 180.757812 127 L 180.757812 177.839844 L 130 177.839844 Z M 130 127 " clip-rule="nonzero"/></clipPath></defs><rect x="-19.2" width="230.4" fill="#ffffff" y="-19.2" height="230.399995" fill-opacity="1"/><rect x="-19.2" width="230.4" fill="#ffffff" y="-19.2" height="230.399995" fill-opacity="1"/><path fill="#d4af37" d="M 91.355469 124.355469 C 90.667969 124.355469 89.980469 124.222656 89.324219 123.957031 C 87.980469 123.414062 86.933594 122.378906 86.371094 121.046875 L 84.539062 116.71875 C 84.398438 116.71875 84.253906 116.71875 84.113281 116.71875 L 83.304688 118.722656 C 82.414062 120.921875 79.90625 121.980469 77.710938 121.085938 C 75.511719 120.195312 74.453125 117.691406 75.34375 115.496094 L 76.988281 111.445312 C 77.863281 109.285156 80.015625 107.929688 82.347656 108.078125 C 83.625 108.160156 84.910156 108.152344 86.175781 108.050781 C 88.503906 107.863281 90.679688 109.1875 91.589844 111.339844 L 93.042969 114.777344 L 102.003906 110.988281 L 100.546875 107.546875 C 99.640625 105.398438 100.203125 102.917969 101.957031 101.375 C 102.914062 100.535156 103.816406 99.617188 104.640625 98.648438 C 106.15625 96.871094 108.628906 96.265625 110.792969 97.144531 L 114.257812 98.546875 L 117.914062 89.53125 L 114.449219 88.125 C 112.289062 87.25 110.933594 85.097656 111.082031 82.765625 C 111.164062 81.492188 111.15625 80.203125 111.054688 78.9375 C 110.871094 76.609375 112.191406 74.4375 114.339844 73.527344 L 117.78125 72.070312 L 113.992188 63.109375 L 110.546875 64.566406 C 108.398438 65.476562 105.917969 64.90625 104.375 63.152344 C 103.539062 62.203125 102.621094 61.296875 101.652344 60.472656 C 99.871094 58.953125 99.269531 56.480469 100.148438 54.316406 L 101.550781 50.855469 L 92.535156 47.199219 L 91.128906 50.664062 C 90.25 52.832031 88.082031 54.183594 85.761719 54.03125 C 84.492188 53.949219 83.203125 53.957031 81.9375 54.058594 C 79.617188 54.234375 77.4375 52.917969 76.527344 50.773438 L 75.070312 47.328125 L 66.109375 51.121094 L 67.566406 54.5625 C 68.476562 56.710938 67.910156 59.191406 66.15625 60.734375 C 65.203125 61.574219 64.300781 62.488281 63.472656 63.460938 C 61.957031 65.238281 59.488281 65.84375 57.324219 64.96875 L 53.855469 63.5625 L 50.199219 72.578125 L 53.664062 73.984375 C 55.828125 74.859375 57.179688 77.015625 57.03125 79.34375 C 56.949219 80.617188 56.957031 81.90625 57.058594 83.171875 C 57.242188 85.5 55.921875 87.675781 53.769531 88.585938 L 50.101562 90.136719 C 47.914062 91.058594 45.398438 90.039062 44.472656 87.855469 C 43.546875 85.671875 44.570312 83.152344 46.753906 82.226562 L 48.390625 81.535156 C 48.390625 81.394531 48.386719 81.253906 48.386719 81.109375 L 44.027344 79.34375 C 42.6875 78.800781 41.640625 77.765625 41.078125 76.433594 C 40.515625 75.105469 40.503906 73.632812 41.046875 72.292969 L 47.089844 57.390625 C 47.628906 56.050781 48.664062 55.003906 49.996094 54.4375 C 51.328125 53.875 52.800781 53.863281 54.136719 54.410156 L 58.496094 56.175781 C 58.59375 56.074219 58.695312 55.972656 58.792969 55.871094 L 56.960938 51.539062 C 55.800781 48.792969 57.089844 45.609375 59.835938 44.449219 L 74.648438 38.183594 C 77.394531 37.019531 80.578125 38.308594 81.738281 41.058594 L 83.574219 45.390625 C 83.714844 45.390625 83.855469 45.386719 83.996094 45.386719 L 85.765625 41.027344 C 86.886719 38.261719 90.046875 36.925781 92.8125 38.046875 L 107.714844 44.089844 C 109.054688 44.628906 110.105469 45.664062 110.667969 46.996094 C 111.230469 48.328125 111.242188 49.796875 110.699219 51.140625 L 108.933594 55.496094 C 109.03125 55.597656 109.132812 55.695312 109.234375 55.796875 L 113.566406 53.960938 C 114.898438 53.398438 116.371094 53.386719 117.710938 53.929688 C 119.046875 54.472656 120.097656 55.507812 120.660156 56.835938 L 126.925781 71.648438 C 127.488281 72.980469 127.5 74.449219 126.957031 75.789062 C 126.414062 77.128906 125.378906 78.179688 124.046875 78.742188 L 119.71875 80.574219 C 119.71875 80.714844 119.722656 80.855469 119.722656 80.996094 L 124.082031 82.765625 C 126.847656 83.886719 128.183594 87.050781 127.0625 89.8125 L 121.019531 104.71875 C 119.902344 107.484375 116.738281 108.820312 113.972656 107.699219 L 109.613281 105.933594 C 109.511719 106.035156 109.414062 106.132812 109.316406 106.234375 L 111.148438 110.566406 C 112.3125 113.316406 111.019531 116.5 108.269531 117.660156 L 93.460938 123.925781 C 92.785156 124.210938 92.070312 124.355469 91.355469 124.355469 Z M 91.355469 124.355469 " fill-opacity="1" fill-rule="nonzero"/><path fill="#d4af37" d="M 84.0625 103.105469 C 81.257812 103.105469 78.453125 102.5625 75.777344 101.476562 C 70.320312 99.265625 66.054688 95.0625 63.757812 89.640625 C 59.023438 78.449219 64.277344 65.488281 75.46875 60.753906 C 86.664062 56.023438 99.621094 61.273438 104.355469 72.464844 C 106.648438 77.886719 106.695312 83.878906 104.484375 89.335938 C 102.269531 94.789062 98.066406 99.058594 92.644531 101.351562 C 89.882812 102.519531 86.972656 103.105469 84.0625 103.105469 Z M 84.039062 67.601562 C 82.292969 67.601562 80.523438 67.941406 78.816406 68.664062 C 75.507812 70.0625 72.941406 72.667969 71.589844 76 C 70.242188 79.328125 70.269531 82.984375 71.667969 86.292969 C 73.070312 89.605469 75.675781 92.171875 79.003906 93.519531 C 82.335938 94.867188 85.992188 94.84375 89.300781 93.441406 C 92.609375 92.042969 95.175781 89.4375 96.523438 86.109375 C 97.875 82.777344 97.847656 79.121094 96.445312 75.8125 C 94.277344 70.6875 89.28125 67.601562 84.039062 67.601562 Z M 84.039062 67.601562 " fill-opacity="1" fill-rule="nonzero"/><path fill="#d4af37" d="M 43.78125 134.324219 C 38.230469 134.324219 33.1875 130.523438 31.847656 124.894531 C 31.089844 121.707031 31.621094 118.417969 33.335938 115.628906 C 35.054688 112.835938 37.757812 110.882812 40.941406 110.125 C 44.132812 109.371094 47.421875 109.898438 50.210938 111.617188 C 53 113.332031 54.953125 116.035156 55.710938 119.222656 C 56.46875 122.410156 55.941406 125.699219 54.222656 128.492188 C 52.503906 131.28125 49.804688 133.234375 46.617188 133.992188 C 45.667969 134.214844 44.714844 134.324219 43.78125 134.324219 Z M 43.785156 118.382812 C 43.5 118.382812 43.214844 118.414062 42.929688 118.480469 C 41.972656 118.710938 41.164062 119.292969 40.648438 120.128906 C 40.132812 120.964844 39.976562 121.953125 40.203125 122.910156 C 40.671875 124.882812 42.660156 126.105469 44.628906 125.636719 C 46.601562 125.167969 47.824219 123.179688 47.355469 121.210938 C 47.128906 120.253906 46.542969 119.445312 45.707031 118.929688 C 45.121094 118.566406 44.457031 118.382812 43.785156 118.382812 Z M 43.785156 118.382812 " fill-opacity="1" fill-rule="nonzero"/><g clip-path="url(#ee069008fd)"><path fill="#d4af37" d="M 44.117188 154.367188 C 43.039062 154.367188 41.976562 154.066406 41.03125 153.484375 C 39.6875 152.65625 38.75 151.355469 38.382812 149.824219 L 37.324219 145.371094 C 37.011719 145.28125 36.703125 145.191406 36.394531 145.089844 L 33.066406 148.234375 C 30.699219 150.472656 26.953125 150.363281 24.714844 147.996094 L 16.800781 139.617188 C 14.5625 137.25 14.667969 133.503906 17.039062 131.269531 L 20.367188 128.121094 C 20.328125 127.964844 20.289062 127.808594 20.25 127.652344 C 20.214844 127.496094 20.179688 127.335938 20.144531 127.175781 L 15.753906 125.867188 C 14.242188 125.414062 13 124.402344 12.25 123.015625 C 11.5 121.625 11.335938 120.027344 11.785156 118.515625 L 15.085938 107.472656 C 15.535156 105.960938 16.550781 104.714844 17.9375 103.964844 C 19.324219 103.214844 20.921875 103.054688 22.433594 103.503906 L 26.820312 104.8125 C 27.050781 104.585938 27.285156 104.363281 27.527344 104.144531 L 26.46875 99.691406 C 25.714844 96.523438 27.679688 93.332031 30.851562 92.578125 L 42.066406 89.914062 C 43.597656 89.546875 45.1875 89.800781 46.527344 90.628906 C 47.871094 91.457031 48.8125 92.757812 49.175781 94.292969 L 50.234375 98.746094 C 50.546875 98.832031 50.859375 98.925781 51.167969 99.023438 L 54.492188 95.882812 C 56.863281 93.644531 60.605469 93.753906 62.84375 96.121094 L 70.757812 104.5 C 71.84375 105.644531 72.414062 107.144531 72.371094 108.722656 C 72.324219 110.300781 71.667969 111.765625 70.519531 112.851562 L 67.191406 115.992188 C 67.234375 116.152344 67.273438 116.308594 67.308594 116.46875 C 67.347656 116.625 67.382812 116.78125 67.417969 116.9375 L 71.804688 118.25 C 73.320312 118.699219 74.5625 119.714844 75.3125 121.101562 C 76.0625 122.492188 76.226562 124.085938 75.773438 125.601562 L 72.476562 136.644531 C 72.023438 138.15625 71.011719 139.402344 69.625 140.152344 C 68.234375 140.902344 66.636719 141.066406 65.125 140.613281 L 60.742188 139.304688 C 60.507812 139.53125 60.273438 139.753906 60.035156 139.972656 L 61.09375 144.425781 C 61.847656 147.59375 59.882812 150.78125 56.714844 151.535156 L 45.496094 154.203125 C 45.039062 154.3125 44.578125 154.367188 44.121094 154.367188 Z M 35.757812 136.105469 C 36.5 136.105469 37.25 136.246094 37.960938 136.53125 C 38.851562 136.890625 39.777344 137.167969 40.714844 137.355469 C 42.96875 137.808594 44.769531 139.546875 45.300781 141.78125 L 46.117188 145.226562 L 52.117188 143.800781 L 51.296875 140.351562 C 50.769531 138.117188 51.59375 135.757812 53.398438 134.339844 C 54.152344 133.75 54.851562 133.085938 55.488281 132.363281 C 57.007812 130.636719 59.410156 129.945312 61.613281 130.601562 L 65.015625 131.617188 L 66.777344 125.710938 L 63.378906 124.695312 C 61.179688 124.039062 59.550781 122.144531 59.222656 119.867188 C 59.15625 119.398438 59.066406 118.921875 58.953125 118.449219 C 58.84375 117.980469 58.710938 117.515625 58.558594 117.058594 C 57.824219 114.882812 58.429688 112.457031 60.097656 110.878906 L 62.675781 108.445312 L 58.441406 103.964844 L 55.863281 106.398438 C 54.191406 107.980469 51.730469 108.445312 49.59375 107.582031 C 48.707031 107.226562 47.78125 106.949219 46.84375 106.757812 C 44.589844 106.304688 42.792969 104.570312 42.261719 102.335938 L 41.441406 98.886719 L 35.441406 100.3125 L 36.261719 103.757812 C 36.792969 105.992188 35.96875 108.355469 34.15625 109.773438 C 33.40625 110.363281 32.703125 111.027344 32.070312 111.746094 C 30.550781 113.476562 28.144531 114.167969 25.941406 113.511719 L 22.542969 112.496094 L 20.78125 118.402344 L 24.179688 119.417969 C 26.378906 120.074219 28.011719 121.96875 28.335938 124.246094 C 28.402344 124.714844 28.492188 125.191406 28.605469 125.664062 C 28.71875 126.132812 28.851562 126.601562 29 127.046875 C 29.734375 129.230469 29.128906 131.65625 27.460938 133.230469 L 24.882812 135.664062 L 29.117188 140.148438 L 31.695312 137.710938 C 32.808594 136.660156 34.273438 136.101562 35.757812 136.101562 Z M 24.515625 130.113281 L 24.519531 130.113281 Z M 21.566406 126.992188 C 21.566406 126.992188 21.5625 126.992188 21.5625 126.996094 Z M 52.804688 99.617188 C 52.804688 99.617188 52.808594 99.621094 52.808594 99.621094 C 52.804688 99.621094 52.804688 99.621094 52.804688 99.617188 Z M 52.804688 99.617188 " fill-opacity="1" fill-rule="nonzero"/></g><path fill="#d4af37" d="M 139.398438 141.300781 C 138.300781 141.300781 137.203125 140.882812 136.363281 140.042969 L 130.804688 134.488281 C 129.128906 132.8125 129.128906 130.089844 130.804688 128.414062 C 132.484375 126.738281 135.199219 126.738281 136.878906 128.414062 L 142.433594 133.972656 C 144.113281 135.648438 144.113281 138.367188 142.433594 140.042969 C 141.597656 140.882812 140.5 141.300781 139.398438 141.300781 Z M 139.398438 141.300781 " fill-opacity="1" fill-rule="nonzero"/><g clip-path="url(#1cb3a612d7)"><path fill="#d4af37" d="M 82.519531 145.917969 C 80.277344 145.917969 78.015625 145.804688 75.796875 145.578125 C 73.4375 145.339844 71.71875 143.234375 71.960938 140.875 C 72.199219 138.515625 74.3125 136.796875 76.664062 137.035156 C 78.597656 137.234375 80.566406 137.332031 82.519531 137.332031 C 114.0625 137.332031 139.722656 111.671875 139.722656 80.128906 C 139.722656 48.585938 114.0625 22.925781 82.519531 22.925781 C 50.976562 22.925781 25.316406 48.585938 25.316406 80.128906 C 25.316406 84.273438 25.761719 88.40625 26.636719 92.410156 C 27.144531 94.726562 25.675781 97.015625 23.359375 97.523438 C 21.042969 98.027344 18.757812 96.5625 18.25 94.246094 C 17.242188 89.636719 16.730469 84.890625 16.730469 80.128906 C 16.730469 43.855469 46.242188 14.339844 82.519531 14.339844 C 118.796875 14.339844 148.3125 43.851562 148.3125 80.128906 C 148.3125 116.40625 118.796875 145.921875 82.519531 145.921875 Z M 82.519531 145.917969 " fill-opacity="1" fill-rule="nonzero"/></g><g clip-path="url(#3ee80adaa7)"><path fill="#d4af37" d="M 164.542969 177.644531 C 162.953125 177.644531 161.453125 177.023438 160.328125 175.898438 L 131.785156 147.355469 C 129.464844 145.03125 129.464844 141.253906 131.785156 138.929688 L 141.9375 128.777344 C 144.261719 126.457031 148.039062 126.457031 150.367188 128.777344 L 178.90625 157.320312 C 180.03125 158.445312 180.652344 159.941406 180.652344 161.535156 C 180.652344 163.128906 180.03125 164.625 178.90625 165.753906 L 168.757812 175.902344 C 167.632812 177.027344 166.136719 177.648438 164.542969 177.648438 Z M 166.402344 169.828125 L 166.410156 169.828125 Z M 139.71875 143.140625 L 164.542969 167.96875 L 170.976562 161.535156 L 146.152344 136.707031 Z M 139.71875 143.140625 " fill-opacity="1" fill-rule="nonzero"/></g></svg>