<svg xmlns="http://www.w3.org/2000/svg" xmlns:xlink="http://www.w3.org/1999/xlink" width="256" zoomAndPan="magnify" viewBox="0 0 192 191.999996" height="256" preserveAspectRatio="xMidYMid meet" version="1.0"><defs><clipPath id="3394a73ef8"><path d="M 9.601562 8.855469 L 182.101562 8.855469 L 182.101562 173 L 9.601562 173 Z M 9.601562 8.855469 " clip-rule="nonzero"/></clipPath></defs><rect x="-19.2" width="230.4" fill="#ffffff" y="-19.2" height="230.399995" fill-opacity="1"/><rect x="-19.2" width="230.4" fill="#ffffff" y="-19.2" height="230.399995" fill-opacity="1"/><g clip-path="url(#3394a73ef8)"><path fill="#d4af37" d="M 45.886719 87.460938 C 24.160156 106.542969 9.085938 121.855469 9.640625 163.390625 C 42.363281 178.140625 70.179688 174.429688 92.785156 159.886719 C 120.511719 175.414062 156.671875 173.136719 182.367188 153.527344 C 177.386719 124.9375 167.027344 100.886719 135.714844 82.125 C 134.078125 55.746094 117.3125 23.960938 91.414062 8.855469 C 69.859375 18.824219 42.695312 51.097656 45.886719 87.460938 Z M 49.15625 107.421875 C 47.734375 103.59375 46.949219 99.179688 46.949219 95.410156 C 29.335938 109.179688 16.507812 129.34375 16.039062 158.601562 C 59.039062 181.011719 114.378906 151.851562 127.253906 104.253906 C 123.800781 102.496094 120.355469 100.742188 116.90625 98.984375 C 104.347656 142.53125 68.503906 163.320312 28.0625 150.292969 C 29.316406 134.675781 37.046875 120.546875 49.15625 107.421875 Z M 101.71875 156.644531 C 104.851562 154.140625 107.960938 151.738281 110.507812 148.792969 C 128.976562 153.285156 147.300781 153.164062 161.433594 145.101562 C 152.542969 105.257812 116.78125 82.699219 72.410156 93.566406 C 71.316406 89.945312 71.351562 85.621094 71.734375 81.855469 C 123.183594 69.613281 170.726562 103.664062 174.496094 151.265625 C 149.179688 165.949219 122.589844 164.640625 101.71875 156.644531 Z M 132.871094 109.992188 C 141.1875 118.269531 151.398438 129.070312 154.710938 141.871094 C 142.96875 146.871094 127.859375 145.152344 115.390625 142.214844 C 121.890625 133.835938 128.71875 122.4375 132.871094 109.992188 Z M 110.4375 72.699219 C 106.558594 61.625 100.730469 48.882812 91.207031 40.109375 C 81.699219 48.996094 75.449219 60.894531 72.714844 73.410156 C 84.046875 71.339844 97.417969 71.070312 110.4375 72.699219 Z M 50.933594 113.664062 C 43.414062 122.671875 37.566406 132.9375 34.917969 145.613281 C 46.351562 149.09375 58.152344 148.679688 70.300781 144.605469 C 62.710938 135.9375 56.21875 125.671875 50.933594 113.664062 Z M 109.3125 100.609375 C 105.867188 111.824219 100.570312 122.136719 91.390625 131.269531 C 81.546875 122.75 75.777344 114.378906 72.570312 101.980469 C 84.09375 97.214844 95.699219 97 109.3125 100.609375 Z M 128.398438 77.195312 C 124.738281 75.554688 121.082031 74.578125 117.429688 74.269531 C 112.683594 56.378906 104.707031 40.140625 91.710938 30.59375 C 57.929688 58.597656 54.90625 106.875 86.355469 134.929688 C 83.058594 137.492188 79.75 139.410156 76.4375 140.960938 C 41.433594 104.738281 47.230469 43.957031 90.894531 17.675781 C 115.539062 33.464844 125.949219 54.972656 128.398438 77.195312 Z M 128.398438 77.195312 " fill-opacity="1" fill-rule="evenodd"/></g></svg>